<svg xmlns="http://www.w3.org/2000/svg" fill="blue" viewBox="0 0 24 24" class="nuxt-icon common-icon page-header-dropdown__icon" height="18" width="18"><path stroke="#1972F5" d="M20.002 18.036v1-1Zm-4.626 0v1-1Zm-.638.23.638.77-.638-.77Zm-2.74 2.27-.643.766a1 1 0 0 0 1.28.004l-.637-.77Zm-2.704-2.267-.642.767.642-.767ZM4.002 4v1-1Zm8 1a1 1 0 1 0 0-2v2Zm10 8.018a1 1 0 1 0-2 0h2Zm-18 4.018V5h-2v12.036h2Zm16 0h-4.626v2h4.626v-2Zm-5.902.46-2.74 2.27 1.276 1.54 2.74-2.27-1.276-1.54Zm-1.46 2.273-2.703-2.266-1.285 1.533 2.704 2.266 1.284-1.533Zm-3.988-2.733h-4.65v2h4.65v-2ZM4.002 5h8V3h-8v2Zm16 8.018v4.018h2v-4.018h-2Zm-4.626 4.018a2 2 0 0 0-1.276.46l1.276 1.54v-2Zm-13.374 0a2 2 0 0 0 2 2v-2h-2Zm18 2a2 2 0 0 0 2-2h-2v2ZM9.937 17.503a2 2 0 0 0-1.285-.467v2l1.285-1.533ZM4.002 5V3a2 2 0 0 0-2 2h2ZM21 6a2 2 0 0 1-2 2v2a4 4 0 0 0 4-4h-2Zm-2 2a2 2 0 0 1-2-2h-2a4 4 0 0 0 4 4V8Zm-2-2a2 2 0 0 1 2-2V2a4 4 0 0 0-4 4h2Zm2-2a2 2 0 0 1 2 2h2a4 4 0 0 0-4-4v2Z"/></svg>