<svg xmlns="http://www.w3.org/2000/svg" fill="none" viewBox="0 0 24 24" class="nuxt-icon common-icon page-header-dropdown__icon" height="18" width="18"><path stroke="#1972F5"  d="M10 4h1a1 1 0 0 0-1-1v1Zm0 6v1a1 1 0 0 0 1-1h-1Zm-6 0H3a1 1 0 0 0 1 1v-1Zm.546-5.891L5 5l-.454-.891Zm-.437.437L5 5l-.891-.454ZM14 4V3a1 1 0 0 0-1 1h1Zm6 6v1a1 1 0 0 0 1-1h-1Zm-6 0h-1a1 1 0 0 0 1 1v-1Zm5.454-5.891L19 5l.454-.891Zm.437.437L19 5l.891-.454ZM4 14v-1a1 1 0 0 0-1 1h1Zm6 0h1a1 1 0 0 0-1-1v1Zm0 6v1a1 1 0 0 0 1-1h-1Zm-5.454-.109L5 19l-.454.891Zm-.437-.437L5 19l-.891.454Zm16.184 2.254a1 1 0 0 0 1.414-1.415l-1.414 1.415ZM5.6 5H10V3H5.6v2ZM9 4v6h2V4H9Zm1 5H4v2h6V9Zm-5 1V5.6H3V10h2Zm.6-7c-.264 0-.521 0-.738.017a2.021 2.021 0 0 0-.77.201L5 5c-.058.03-.08.019.025.01C5.14 5 5.303 5 5.6 5V3ZM5 5.6c0-.297 0-.459.01-.575C5.02 4.92 5.03 4.942 5 5l-1.782-.908a2.021 2.021 0 0 0-.201.77C2.999 5.079 3 5.336 3 5.6h2Zm-.908-2.382a2 2 0 0 0-.874.874L5 5l-.908-1.782ZM14 5h4.4V3H14v2Zm5 .6V10h2V5.6h-2ZM20 9h-6v2h6V9Zm-5 1V4h-2v6h2Zm3.4-5c.297 0 .459 0 .575.01.105.009.082.02.025-.01l.908-1.782a2.022 2.022 0 0 0-.77-.201C18.921 2.999 18.663 3 18.4 3v2Zm2.6.6c0-.264 0-.521-.017-.738a2.022 2.022 0 0 0-.201-.77L19 5c-.03-.058-.019-.08-.01.025.01.116.01.278.01.575h2ZM19 5l1.782-.908a2 2 0 0 0-.874-.874L19 5ZM4 15h6v-2H4v2Zm5-1v6h2v-6H9Zm1 5H5.6v2H10v-2Zm-5-.6V14H3v4.4h2Zm.6.6c-.297 0-.459 0-.575-.01-.105-.009-.083-.02-.025.01l-.908 1.782c.271.138.541.182.77.201.217.018.474.017.738.017v-2ZM3 18.4c0 .264 0 .521.017.738.019.229.063.499.201.77L5 19c.03.058.019.08.01-.025A8.194 8.194 0 0 1 5 18.4H3Zm2 .6-1.782.908a2 2 0 0 0 .874.874L5 19Zm13.414-.585a2 2 0 0 1-2.828 0l-1.414 1.414a4 4 0 0 0 5.656 0l-1.414-1.414Zm-2.828 0a2 2 0 0 1 0-2.829l-1.414-1.414a4 4 0 0 0 0 5.657l1.414-1.414Zm0-2.829a2 2 0 0 1 2.828 0l1.414-1.414a4 4 0 0 0-5.656 0l1.414 1.414Zm2.828 0a2 2 0 0 1 0 2.829l1.414 1.414a4 4 0 0 0 0-5.657l-1.414 1.414Zm0 4.243 1.879 1.879 1.414-1.415-1.879-1.878-1.414 1.414Z"/></svg>